<?xml version="1.0" encoding="UTF-8" standalone="no"?>
<svg
   xmlns:dc="http://purl.org/dc/elements/1.1/"
   xmlns:cc="http://creativecommons.org/ns#"
   xmlns:rdf="http://www.w3.org/1999/02/22-rdf-syntax-ns#"
   xmlns:svg="http://www.w3.org/2000/svg"
   xmlns="http://www.w3.org/2000/svg"
   xmlns:sodipodi="http://sodipodi.sourceforge.net/DTD/sodipodi-0.dtd"
   xmlns:inkscape="http://www.inkscape.org/namespaces/inkscape"
   width="24"
   height="24"
   viewBox="0 0 24 24"
   fill="#FFFFFF"
   version="1.1"
   id="svg4"
   sodipodi:docname="ranking.svg"
   inkscape:version="1.0.1 (3bc2e813f5, 2020-09-07)">
  <metadata
     id="metadata10">
    <rdf:RDF>
      <cc:Work
         rdf:about="">
        <dc:format>image/svg+xml</dc:format>
        <dc:type
           rdf:resource="http://purl.org/dc/dcmitype/StillImage" />
        <dc:title></dc:title>
      </cc:Work>
    </rdf:RDF>
  </metadata>
  <defs
     id="defs8" />
  <sodipodi:namedview
     pagecolor="#ffffff"
     bordercolor="#666666"
     borderopacity="1"
     objecttolerance="10"
     gridtolerance="10"
     guidetolerance="10"
     inkscape:pageopacity="0"
     inkscape:pageshadow="2"
     inkscape:window-width="960"
     inkscape:window-height="1062"
     id="namedview6"
     showgrid="false"
     inkscape:zoom="13.007819"
     inkscape:cx="27.704479"
     inkscape:cy="22.984211"
     inkscape:window-x="1920"
     inkscape:window-y="18"
     inkscape:window-maximized="0"
     inkscape:current-layer="svg4" />
  <path
     style="fill:#ffffff;stroke-width:0.189403"
     d="M 1.0302695,23.686511 C 0.05227835,22.981455 0.0563408,23.028308 0.0563408,12.457981 V 2.6398554 L 0.51458274,2.1682053 C 0.8765603,1.7956341 1.1652124,1.6965543 1.8886479,1.6965543 c 0.7845247,0 1.0120085,-0.093367 1.5867051,-0.6512365 1.3575048,-1.317759 3.3700282,-1.32384297 4.7781685,-0.014444 l 0.7083915,0.6587185 4.555037,0.05152 c 3.902215,0.044135 4.555037,0.092829 4.555037,0.3397501 0,0.2464191 -0.62682,0.2957069 -4.320968,0.3397622 l -4.3209655,0.051529 0.00975,1.1013936 C 9.4515496,4.9004836 9.1133496,5.6450626 8.0889311,6.5475877 7.3551134,7.194089 7.3372737,7.2392748 7.3372737,8.4514326 v 1.2416263 l 0.7531581,0.3420171 c 2.1082732,0.957389 1.6915765,3.167947 -0.7339745,3.893708 -2.3465761,0.702132 -5.0598315,-0.411137 -5.0598315,-2.076085 0,-0.63819 0.7332579,-1.569398 1.4897459,-1.8919144 C 4.3350735,9.7268529 4.3502235,9.685493 4.3502235,8.421435 4.3502235,7.1701775 4.3269295,7.1041905 3.7159183,6.6245103 2.7880094,5.8960486 2.2298299,4.59336 2.3399906,3.4133461 L 2.4285066,2.4651696 H 1.8398327 c -0.3237698,0 -0.6894869,0.1037643 -0.8127022,0.2305852 -0.16635142,0.17122 -0.22402883,2.1028232 -0.22402883,7.5027362 v 7.272152 l 0.45824053,0.471652 c 0.4250498,0.437487 0.5926294,0.471648 2.3136587,0.471648 1.4973391,0 1.8766795,0.05703 1.96559,0.295506 0.060763,0.16298 -0.00562,0.341239 -0.1480236,0.397482 -0.3818028,0.150801 -3.8829675,-0.0058 -4.262756,-0.190754 -0.29835816,-0.14524 -0.32670923,-0.0094 -0.32670923,1.564989 0,1.453195 0.0607829,1.803565 0.38693123,2.230327 l 0.386931,0.506299 H 12.004538 22.432113 l 0.386932,-0.506299 c 0.326146,-0.426762 0.386931,-0.777132 0.386931,-2.230327 0,-1.576565 -0.02795,-1.709946 -0.326709,-1.559357 -0.179689,0.09057 -4.008674,0.188072 -8.508854,0.216668 -7.7435039,0.0492 -8.1787338,0.03375 -8.118571,-0.28823 0.059326,-0.317509 0.6036265,-0.346642 8.152098,-0.436304 l 8.08853,-0.09607 0.356753,-0.453635 c 0.337104,-0.42865 0.356753,-0.852513 0.356753,-7.695764 0,-5.3765622 -0.05771,-7.301528 -0.224031,-7.4727144 -0.144766,-0.1490039 -0.893348,-0.2305852 -2.115824,-0.2305852 -1.972061,0 -2.276419,-0.080561 -1.92955,-0.5107426 0.149609,-0.1855446 0.753707,-0.2578726 2.153808,-0.2578726 1.817073,0 1.976209,0.031221 2.404118,0.4716509 l 0.458241,0.47165 v 9.8181239 c 0,10.624116 0.009,10.523965 -1.010686,11.211661 -0.42227,0.284777 -1.531325,0.316764 -10.98275,0.316764 -9.2245182,0 -10.5640342,-0.03675 -10.9290361,-0.299895 z M 7.617312,12.989977 c 1.1983323,-0.635079 1.3690706,-1.47702 0.420054,-2.071364 L 7.4306207,10.538626 7.2874334,11.10498 c -0.3783034,1.496319 -2.3816851,1.505916 -2.841857,0.01361 -0.1514156,-0.491024 -0.2960575,-0.489841 -0.9102801,0.0074 -0.5787234,0.468544 -0.6122138,0.751324 -0.1574439,1.329376 0.6543244,0.8317 3.0974981,1.139765 4.2394596,0.534558 z M 6.3664852,11.265819 C 6.5101191,11.117982 6.5905139,10.362361 6.5905139,9.1602252 v -1.875009 l -0.7000888,0.03994 -0.7000913,0.039938 -0.053412,1.7567609 c -0.042856,1.4095789 0.0059,1.8178089 0.2466993,2.0656569 0.3571855,0.367638 0.6770033,0.393121 0.9828643,0.0783 z M 6.7299935,6.5030256 C 7.1933347,6.4978081 8.4537927,5.1141819 8.6385456,4.4079847 9.0277269,2.920382 7.9283515,1.095533 6.4737638,0.81466507 4.4181601,0.41774673 2.6021821,2.4975605 3.2027871,4.5608678 3.3170271,4.9533196 3.6139679,5.4711639 3.8626602,5.7116354 4.4164471,6.2471156 5.618398,6.7169057 6.1237882,6.5954096 6.3291476,6.546042 6.6019402,6.5044687 6.7299935,6.5030256 Z M 11.344644,22.081456 c -0.574437,-0.250652 -0.83953,-0.656911 -0.641954,-0.983802 0.139932,-0.231518 0.237489,-0.238939 0.54686,-0.0416 0.207099,0.132106 0.546846,0.240192 0.754991,0.240192 0.208147,0 0.547894,-0.108088 0.754994,-0.240192 0.310411,-0.198006 0.407252,-0.189569 0.55139,0.04804 0.380279,0.626877 -1.09217,1.35877 -1.966281,0.977357 z M 7.6034878,21.616694 c -0.1890364,-0.507037 -0.00336,-1.377287 0.2938603,-1.377287 0.2012553,0 0.2800376,0.211723 0.2800376,0.752602 0,0.762137 -0.3717771,1.166815 -0.5738979,0.624685 z m 8.2143862,0 c -0.189036,-0.507037 -0.0033,-1.377287 0.293862,-1.377287 0.201253,0 0.280034,0.211723 0.280034,0.752602 0,0.762137 -0.371776,1.166815 -0.573896,0.624685 z m -1.4797,-4.274323 c -0.102675,-0.02626 -0.42488,-0.102032 -0.716002,-0.168391 -0.291121,-0.06636 -0.732176,-0.345959 -0.980124,-0.621329 -0.39148,-0.434773 -0.450815,-0.686266 -0.450815,-1.910735 0,-1.286455 0.04775,-1.465075 0.544756,-2.037596 0.509609,-0.587041 0.623252,-0.627531 1.761303,-0.627531 1.091557,0 1.275346,0.05799 1.788875,0.564373 0.537393,0.529922 0.572331,0.650919 0.572331,1.98221 0,1.543386 -0.162834,2.031686 -0.793324,2.378988 -0.473198,0.26066 -1.452554,0.510182 -1.727,0.440011 z m 1.35864,-1.149093 c 0.512889,-0.369752 0.588982,-1.171218 0.08821,-0.929116 -0.426132,0.206015 -1.8912,0.214668 -2.426977,0.01433 -0.346935,-0.129724 -0.420054,-0.08981 -0.420054,0.229296 0,0.548782 0.702416,0.984615 1.586869,0.984615 0.416365,0 0.943744,-0.134609 1.17195,-0.299128 z M 15.439262,14.54484 c 1.195991,-0.560878 0.552159,-1.895512 -0.914398,-1.895512 -0.599877,0 -1.354131,0.367943 -1.487488,0.725635 -0.376599,1.010124 1.153438,1.755354 2.401886,1.169877 z m 2.985219,0.02985 c -0.829559,-0.344989 -1.192602,-1.113543 -1.192602,-2.524711 0,-1.173547 0.05729,-1.382116 0.52871,-1.92518 0.44393,-0.5113839 0.693493,-0.623111 1.556333,-0.6967572 1.12898,-0.096363 2.050907,0.2526527 2.389998,0.9047882 0.105731,0.203329 0.192224,0.986341 0.192224,1.740031 0,1.567916 -0.164545,1.992668 -0.929715,2.399934 -0.588985,0.313488 -1.909061,0.366341 -2.544948,0.101899 z m 2.31298,-0.879418 c 0.228207,-0.16452 0.414921,-0.472989 0.414921,-0.685488 0,-0.318341 -0.07394,-0.359164 -0.420054,-0.231877 -0.530586,0.195134 -1.573214,0.188517 -2.240287,-0.01422 -0.406386,-0.123507 -0.513399,-0.09317 -0.513399,0.145546 0,0.92382 1.840366,1.448172 2.758819,0.786037 z m 0.142208,-1.820817 c 0.404289,-0.34535 0.330612,-1.083138 -0.142208,-1.424004 -0.603257,-0.434904 -1.851375,-0.385692 -2.350236,0.09267 -0.224721,0.215485 -0.408583,0.504726 -0.408583,0.642756 0,0.272275 0.485144,0.767329 0.933452,0.952521 0.413294,0.170726 1.653481,0.0043 1.967575,-0.263941 z m -9.746844,-0.55809 C 10.133871,10.849532 9.9509456,10.469599 9.9509456,8.8616373 c 0,-1.4594154 0.2422144,-1.9900312 1.1222044,-2.4584098 1.016383,-0.5409719 2.188701,-0.3387752 3.125006,0.5389897 0.368086,0.3450716 0.420055,0.582175 0.420055,1.9165102 0,1.4400666 -0.03004,1.5516006 -0.553409,2.0548066 -0.485177,0.466487 -1.285834,0.78402 -1.943578,0.770803 -0.115515,-0.0023 -0.560295,-0.167908 -0.988399,-0.367972 z m 2.411914,-0.927975 c 0.179689,-0.163144 0.326709,-0.4654151 0.326709,-0.6717105 0,-0.2897233 -0.07436,-0.338882 -0.326709,-0.2160074 -0.428678,0.2087272 -2.099572,0.2044544 -2.53675,-0.0065 -0.288629,-0.1392661 -0.333113,-0.092593 -0.280036,0.293826 0.13516,0.9840089 1.964741,1.3739729 2.816786,0.6003819 z m -0.08821,-1.6891135 c 1.288265,-0.9287429 -0.547955,-2.317836 -2.101093,-1.5894702 -0.493666,0.2315102 -0.793178,0.931098 -0.562852,1.3146791 0.350109,0.5830656 2.000231,0.7532782 2.663945,0.2747911 z M 16.674496,8.988974 C 16.316591,8.9049864 15.791522,8.5687418 15.507677,8.2417653 15.051855,7.7166817 14.991592,7.4955436 14.991592,6.3479716 c 0,-1.4426984 0.244909,-1.9758009 1.122204,-2.4427443 1.082027,-0.575912 2.89506,-0.2174015 3.352837,0.6629926 0.105718,0.2033269 0.192223,1.0537231 0.192223,1.8897684 0,1.2078521 -0.0671,1.5803312 -0.326708,1.8134027 -0.765173,0.6869767 -1.705804,0.9409538 -2.657654,0.717583 z m 1.822676,-1.0583142 c 0.228208,-0.1645188 0.414922,-0.4626631 0.414922,-0.6625424 0,-0.3221939 -0.06501,-0.3400891 -0.57316,-0.157765 -0.560136,0.200979 -1.620855,0.1397805 -2.273872,-0.1311906 -0.476332,-0.1976551 -0.421643,0.3760048 0.08187,0.8588313 0.49886,0.4783594 1.746976,0.5275702 2.350234,0.092667 z m -0.135878,-1.723423 c 1.112968,-0.5923812 0.455998,-1.8205277 -0.973854,-1.8205277 -0.925024,0 -1.842732,0.7672739 -1.537416,1.285396 0.468033,0.794255 1.579458,1.031091 2.51127,0.5351317 z"
     id="path86" />
</svg>
